<?xml version="1.0" standalone="no"?>
<!DOCTYPE svg PUBLIC "-//W3C//DTD SVG 20010904//EN"
 "http://www.w3.org/TR/2001/REC-SVG-20010904/DTD/svg10.dtd">
<svg version="1.0" xmlns="http://www.w3.org/2000/svg"
 width="1024.000000pt" height="1024.000000pt" viewBox="0 0 1024.000000 1024.000000"
 preserveAspectRatio="xMidYMid meet">

<g transform="translate(0.000000,1024.000000) scale(0.100000,-0.100000)"
fill="#000000" stroke="none">
<path d="M7010 8822 c-50 -24 -59 -58 -35 -129 39 -114 85 -151 149 -121 23
12 38 28 45 51 10 30 8 43 -14 100 -28 69 -66 117 -94 117 -9 0 -32 -8 -51
-18z"/>
<path d="M7791 8809 c-11 -12 -32 -55 -47 -95 -23 -65 -25 -77 -14 -104 15
-36 37 -50 80 -50 48 0 65 14 95 81 38 85 38 134 2 165 -36 31 -89 32 -116 3z"/>
<path d="M7248 8455 c-236 -58 -424 -250 -474 -486 -21 -97 -14 -258 15 -349
92 -291 393 -481 699 -440 426 56 677 486 521 890 -73 187 -247 337 -449 384
-79 19 -235 19 -312 1z"/>
<path d="M6425 8295 c-19 -18 -25 -35 -25 -69 0 -39 4 -48 33 -70 42 -32 122
-66 156 -66 51 0 94 76 70 123 -16 29 -33 41 -105 77 -75 36 -98 37 -129 5z"/>
<path d="M8325 8310 c-46 -10 -132 -57 -149 -82 -41 -57 -4 -138 62 -138 38 0
142 50 172 82 26 28 26 78 0 110 -23 30 -44 37 -85 28z"/>
<path d="M6500 7569 c-89 -43 -110 -63 -110 -112 0 -29 7 -45 29 -68 16 -16
38 -29 48 -29 27 0 155 67 176 91 27 33 22 86 -12 120 -36 36 -50 36 -131 -2z"/>
<path d="M8186 7574 c-32 -33 -35 -89 -7 -126 24 -30 134 -81 175 -81 41 0 76
43 76 93 0 44 -24 67 -117 114 -66 33 -93 33 -127 0z"/>
<path d="M7772 7085 c-44 -36 -43 -83 2 -180 27 -58 40 -76 60 -81 59 -15 126
31 126 86 0 35 -51 149 -78 173 -34 31 -75 32 -110 2z"/>
<path d="M7055 7081 c-32 -14 -53 -43 -80 -114 -31 -84 -31 -98 1 -136 33 -39
89 -43 121 -8 22 23 73 144 73 172 0 29 -28 71 -55 83 -30 14 -33 14 -60 3z"/>
<path d="M4405 6804 c-20 -22 -25 -38 -27 -102 l-3 -75 -71 -25 -71 -26 -47
34 c-37 27 -59 35 -104 38 -58 4 -86 -3 -189 -49 l-53 -23 -56 24 c-58 24
-175 52 -183 44 -9 -9 38 -90 79 -137 94 -107 176 -124 312 -67 l77 32 58 -36
c67 -41 128 -47 203 -21 24 8 44 14 44 13 1 -2 -1 -66 -4 -142 l-5 -139 -430
-87 c-595 -120 -581 -117 -605 -147 -28 -36 -25 -77 9 -115 l28 -32 84 17
c1113 225 1346 264 1629 274 245 8 509 -16 680 -62 85 -23 107 -20 131 18 37
59 6 134 -65 156 -62 20 -244 50 -375 61 -180 17 -512 8 -711 -19 -85 -12
-158 -21 -162 -21 -5 0 -8 133 -8 295 l0 296 -25 24 c-35 36 -106 35 -140 -1z"/>
<path d="M6870 5989 c-64 -29 -273 -100 -495 -169 -181 -56 -601 -168 -648
-173 -21 -2 -22 1 -22 102 l0 104 -30 9 c-120 33 -631 50 -845 28 -130 -13
-496 -72 -780 -125 -129 -24 -302 -56 -385 -70 -82 -14 -153 -31 -157 -38 -5
-7 -7 -21 -6 -32 3 -17 10 -20 61 -20 l57 1 0 -172 0 -171 -92 -12 c-169 -22
-542 -61 -584 -61 -85 0 -124 -30 -124 -96 l0 -24 -501 0 c-301 0 -507 -4
-518 -10 -37 -19 -44 -60 -32 -189 34 -373 173 -838 352 -1177 38 -72 69 -134
69 -137 0 -4 -31 -7 -68 -7 -203 0 -372 -115 -372 -252 0 -56 29 -104 69 -113
38 -8 66 7 114 61 51 58 112 78 221 72 64 -4 96 -12 154 -38 l72 -33 113 37
c195 65 292 124 453 279 126 120 144 158 109 227 -19 37 -43 50 -92 50 -42 0
-61 -15 -125 -99 l-34 -44 -100 -2 c-104 -2 -193 -24 -277 -68 -37 -19 -38
-19 -52 -1 -13 18 -60 99 -128 223 l-30 55 44 39 c62 54 215 160 274 189 118
59 286 98 420 98 188 0 413 -72 596 -190 34 -22 67 -40 73 -40 6 0 35 16 65
36 74 50 189 101 296 131 74 21 119 26 256 30 229 7 319 -11 550 -108 l116
-49 149 5 c136 5 154 8 209 34 33 15 107 66 163 112 292 237 318 254 456 289
171 43 313 36 486 -26 52 -19 128 -54 169 -79 40 -25 78 -45 84 -45 6 0 32 14
58 30 29 19 70 35 108 41 93 15 160 43 254 109 106 73 182 112 275 140 66 20
71 24 54 35 -10 8 -47 23 -83 35 -53 19 -79 21 -154 17 -114 -6 -162 -25 -338
-134 -130 -80 -139 -85 -166 -73 l-29 12 50 81 c55 87 118 214 118 234 0 10
135 13 680 13 458 0 680 -3 680 -10 0 -52 -87 -418 -119 -502 -13 -33 -18 -34
-47 -7 l-22 21 -56 -26 c-31 -14 -63 -26 -70 -26 -8 0 -33 -10 -56 -22 -41
-22 -42 -22 -88 -4 -201 79 -244 90 -352 91 -134 0 -182 -16 -278 -95 l-74
-60 55 0 c329 0 609 -108 891 -344 43 -36 82 -66 86 -66 12 0 107 231 161 395
69 206 125 442 147 615 20 156 17 193 -19 223 -20 16 -70 17 -730 17 -390 0
-709 1 -709 3 0 1 11 36 24 77 68 208 121 517 129 742 2 58 -1 69 -22 92 -29
31 -50 32 -111 5z m-65 -276 c-51 -377 -161 -717 -330 -1018 l-34 -62 -88 31
c-85 29 -94 31 -253 30 -151 0 -173 -2 -254 -28 -199 -61 -289 -115 -511 -308
-91 -79 -198 -131 -281 -136 -55 -4 -72 1 -180 46 -226 95 -369 125 -589 125
-229 0 -410 -43 -577 -137 l-77 -44 -138 69 c-94 47 -169 77 -236 94 -53 13
-102 27 -107 30 -13 8 -82 228 -84 267 l-1 32 85 13 c47 7 319 45 604 83 357
48 526 74 543 85 34 23 46 60 32 102 -13 39 -34 53 -85 53 -36 0 -342 -38
-814 -101 -368 -49 -392 -51 -401 -42 -5 5 -10 31 -11 58 l-3 49 256 32 c699
88 1525 217 1946 304 504 105 1099 260 1428 374 170 58 168 58 160 -1z m-1297
-8 c19 -6 22 -14 22 -61 0 -30 -3 -54 -7 -54 -5 0 -64 -13 -133 -29 -111 -26
-389 -81 -554 -110 -105 -19 -97 -29 -94 122 l3 132 80 6 c104 8 653 3 683 -6z
m-1061 -186 c-3 -90 -8 -124 -18 -129 -8 -4 -52 -12 -99 -19 -47 -7 -93 -14
-103 -17 -16 -5 -17 4 -15 123 l3 128 95 16 c52 9 105 17 118 18 l23 1 -4
-121z m-417 -73 l0 -124 -111 -17 c-61 -9 -113 -15 -115 -12 -3 3 -8 54 -11
115 -5 87 -3 111 8 118 11 7 88 22 222 43 4 0 7 -55 7 -123z m-1175 -651 c7
-38 16 -85 20 -103 l7 -33 -51 26 c-123 62 -298 73 -395 25 -25 -13 -46 -26
-46 -29 0 -4 37 -14 82 -23 92 -19 178 -58 254 -115 58 -43 134 -110 134 -118
0 -3 -13 -5 -30 -5 -46 0 -127 -19 -226 -52 l-91 -30 -58 20 c-86 31 -209 26
-292 -12 -35 -16 -63 -33 -63 -37 0 -5 -6 -9 -14 -9 -8 0 -20 24 -30 58 -50
164 -48 160 -80 342 -8 47 -17 104 -20 128 l-6 42 447 -2 447 -3 11 -70z
m-665 -658 c0 -2 -9 -12 -19 -21 -14 -13 -21 -14 -27 -5 -4 7 -3 10 3 6 6 -4
16 0 23 8 12 14 20 19 20 12z"/>
<path d="M5367 5228 c-81 -17 -129 -77 -130 -161 -2 -134 121 -214 239 -157
62 30 99 89 98 155 -2 114 -94 187 -207 163z"/>
<path d="M4790 5109 c-63 -26 -102 -88 -102 -160 2 -135 139 -214 256 -145 60
35 90 93 84 162 -5 58 -25 93 -71 128 -31 23 -128 32 -167 15z"/>
<path d="M5896 4335 c-90 -25 -171 -73 -231 -135 -87 -88 -117 -147 -123 -235
l-4 -73 42 -38 c72 -65 138 -178 175 -303 l7 -23 -113 7 c-65 3 -153 2 -203
-4 l-90 -11 -35 42 c-34 40 -118 88 -155 88 -14 0 -17 -5 -13 -22 14 -50 -48
-108 -115 -108 -41 1 -65 14 -131 72 -29 26 -85 75 -125 108 l-72 62 -34 -26
c-67 -50 -156 -29 -156 38 0 19 8 44 19 57 18 23 18 23 -16 40 -78 40 -162 54
-318 54 -116 0 -166 -4 -220 -19 -77 -21 -196 -74 -235 -105 -14 -12 -65 -32
-115 -46 -173 -50 -323 -127 -510 -260 -171 -123 -387 -266 -446 -296 -32 -15
-88 -36 -125 -45 -38 -9 -71 -18 -73 -20 -2 -2 32 -38 75 -80 74 -71 81 -75
115 -71 55 7 144 61 381 230 327 233 448 300 631 347 160 41 460 61 550 37
165 -44 287 -181 287 -324 0 -55 -3 -64 -26 -82 -30 -24 -65 -26 -114 -10 -29
11 -32 15 -27 44 23 141 -126 231 -237 144 -88 -69 -76 -238 22 -319 65 -54
133 -74 252 -74 139 -1 193 17 492 165 343 170 459 203 713 203 183 0 310 -24
466 -88 14 -6 16 6 15 101 0 270 103 472 339 660 l40 32 -43 1 c-51 0 -177
-40 -230 -74 -21 -13 -60 -48 -86 -77 -53 -59 -96 -89 -127 -89 -30 0 -76 29
-88 57 -30 66 -4 120 113 229 69 65 112 95 179 128 l87 42 -22 21 c-49 45 -89
57 -193 60 -63 1 -118 -3 -149 -12z"/>
<path d="M6651 3739 c-103 -32 -189 -107 -239 -209 -23 -49 -26 -67 -27 -160
0 -99 2 -109 33 -172 39 -79 91 -128 182 -171 58 -28 75 -31 155 -31 127 0
187 25 278 116 l69 69 54 -33 c30 -18 65 -44 78 -58 l24 -25 -127 -118 c-70
-65 -147 -132 -172 -148 -24 -16 -80 -56 -125 -89 -108 -81 -274 -179 -412
-246 -121 -58 -162 -72 -162 -56 0 14 27 23 48 15 15 -6 15 -5 3 10 -12 15
-11 17 10 18 13 1 27 1 32 0 17 -3 5 15 -18 25 -18 9 -25 9 -29 0 -3 -8 -5 -7
-5 1 -1 7 -7 10 -15 7 -18 -7 -10 30 10 47 8 6 14 17 14 23 0 6 -6 4 -13 -5
-7 -9 -16 -16 -22 -17 -5 -1 -33 -4 -60 -7 -89 -12 -210 22 -290 81 -36 26
-109 63 -82 41 18 -15 24 -43 7 -32 -5 3 -10 1 -10 -5 0 -6 -8 -10 -17 -9 -39
3 -44 0 -31 -20 7 -11 20 -22 30 -24 10 -3 17 -13 17 -24 -1 -16 -2 -16 -6 0
-8 31 -19 18 -15 -18 9 -76 -28 -123 -88 -110 -24 5 -36 17 -54 55 -42 87 -66
118 -114 148 -82 50 -131 64 -247 72 -121 9 -177 -2 -405 -75 -177 -57 -270
-76 -400 -85 -165 -11 -303 1 -458 40 -93 23 -286 126 -352 187 -19 18 -31 22
-50 17 -54 -15 -110 7 -110 43 0 8 -4 12 -9 9 -5 -3 -8 8 -7 26 1 31 -2 33
-74 62 -68 27 -86 30 -195 30 -101 0 -129 -4 -175 -22 -30 -12 -62 -22 -71
-22 -9 0 -46 -23 -83 -51 -58 -44 -65 -53 -54 -67 28 -34 219 -180 338 -257
445 -291 929 -465 1476 -531 168 -20 528 -23 694 -5 473 49 920 186 1277 391
368 212 670 474 908 788 l85 112 -46 42 c-56 53 -155 114 -209 131 -22 6 -89
12 -148 12 l-108 0 -24 59 c-31 76 -107 154 -191 196 -54 28 -76 33 -151 36
-48 2 -103 -1 -122 -7z m192 -360 c37 -40 37 -95 1 -138 -22 -27 -33 -31 -73
-31 -37 0 -52 5 -68 23 -51 56 -53 105 -5 150 48 44 100 43 145 -4z m-598
-989 c-3 -5 -10 -10 -16 -10 -5 0 -9 5 -9 10 0 6 7 10 16 10 8 0 12 -4 9 -10z
m-43 -14 c7 4 8 2 4 -4 -4 -6 -13 -9 -21 -5 -8 3 -15 0 -15 -6 0 -6 -5 -11
-12 -11 -6 0 -3 9 8 21 10 11 20 16 22 10 2 -6 9 -8 14 -5z m-67 -15 c3 -5 0
-13 -6 -17 -7 -4 -9 -3 -5 4 3 5 0 13 -6 15 -9 4 -10 6 -1 6 6 1 14 -3 18 -8z
m-50 -31 c3 -5 1 -10 -4 -10 -6 0 -11 5 -11 10 0 6 2 10 4 10 3 0 8 -4 11 -10z
m-75 -25 c-55 -18 -53 -18 -39 -2 6 6 28 13 48 14 l36 2 -45 -14z m-220 -59
c0 -2 -7 -6 -15 -10 -8 -3 -15 -1 -15 4 0 6 7 10 15 10 8 0 15 -2 15 -4z
m-747 -83 c-7 -2 -21 -2 -30 0 -10 3 -4 5 12 5 17 0 24 -2 18 -5z"/>
</g>
</svg>
