<?xml version="1.0" standalone="no"?>
<!DOCTYPE svg PUBLIC "-//W3C//DTD SVG 20010904//EN"
 "http://www.w3.org/TR/2001/REC-SVG-20010904/DTD/svg10.dtd">
<svg version="1.0" xmlns="http://www.w3.org/2000/svg"
 width="500.000000pt" height="500.000000pt" viewBox="0 0 500.000000 500.000000"
 preserveAspectRatio="xMidYMid meet">

<g transform="translate(0.000000,500.000000) scale(0.100000,-0.100000)"
fill="#000000" stroke="none">
<path d="M3411 4291 c-13 -24 11 -96 35 -105 44 -17 66 36 37 86 -23 39 -57
48 -72 19z"/>
<path d="M3789 4266 c-22 -50 -17 -74 17 -82 32 -8 39 -1 54 51 10 36 10 48 0
60 -24 28 -50 18 -71 -29z"/>
<path d="M3509 4116 c-130 -50 -202 -155 -203 -296 -1 -91 24 -154 87 -218 51
-53 96 -77 167 -90 236 -43 431 186 351 411 -45 129 -145 200 -286 204 -49 2
-94 -3 -116 -11z"/>
<path d="M3137 4053 c-4 -3 -7 -19 -7 -35 0 -24 7 -32 44 -50 37 -18 47 -19
60 -8 9 7 16 23 16 35 0 37 -89 83 -113 58z"/>
<path d="M4028 4039 c-37 -19 -45 -38 -32 -73 8 -21 27 -20 74 4 42 21 53 53
28 78 -16 16 -26 15 -70 -9z"/>
<path d="M3168 3687 c-47 -24 -56 -42 -35 -71 17 -23 54 -16 93 17 19 17 25
29 20 44 -10 32 -30 34 -78 10z"/>
<path d="M4002 3698 c-7 -7 -12 -22 -12 -35 0 -32 81 -73 104 -53 26 21 18 48
-21 75 -42 28 -54 30 -71 13z"/>
<path d="M3796 3454 c-20 -19 -20 -24 0 -73 17 -44 36 -56 65 -41 29 16 21 76
-16 113 -20 21 -29 21 -49 1z"/>
<path d="M3443 3452 c-18 -12 -44 -72 -41 -94 5 -33 33 -46 56 -25 20 18 44
85 36 99 -9 15 -40 27 -51 20z"/>
<path d="M2156 3324 c-9 -9 -16 -32 -16 -54 0 -36 -2 -39 -38 -45 -24 -4 -50
0 -76 10 -35 15 -42 15 -91 0 -44 -14 -62 -15 -104 -6 -29 6 -56 11 -61 11
-18 0 4 -42 41 -75 44 -39 89 -46 139 -20 27 14 32 13 70 -6 38 -20 58 -21
104 -3 14 5 16 -4 16 -63 l0 -68 -236 -48 c-130 -27 -247 -53 -260 -58 -29
-11 -34 -66 -7 -76 9 -4 145 19 302 50 407 81 479 91 646 84 77 -4 168 -14
203 -23 75 -19 92 -15 92 25 0 53 -45 66 -280 86 -67 6 -269 -7 -342 -21 l-28
-6 0 151 c0 138 -2 151 -19 161 -27 14 -37 13 -55 -6z"/>
<path d="M3255 2889 c-92 -34 -429 -129 -457 -129 -4 0 -8 22 -8 49 l0 50 -57
8 c-32 4 -139 8 -238 7 -164 0 -201 -4 -420 -42 -373 -64 -365 -63 -365 -78 0
-9 11 -14 30 -14 l30 0 0 -84 0 -83 -37 -6 c-21 -4 -105 -13 -188 -22 -82 -8
-153 -19 -156 -23 -4 -4 -9 -16 -11 -27 -3 -19 -12 -20 -250 -23 -225 -2 -248
-4 -257 -20 -14 -26 6 -167 44 -317 36 -137 77 -246 125 -332 17 -29 30 -57
30 -63 0 -5 -19 -10 -42 -10 -84 -1 -168 -61 -168 -119 0 -56 36 -65 87 -21
43 38 116 44 177 14 40 -19 56 -18 133 13 65 26 145 83 211 151 41 42 41 79
-1 102 -28 15 -29 14 -67 -27 -34 -39 -42 -43 -86 -43 -27 -1 -67 -7 -89 -15
-22 -8 -47 -15 -55 -15 -19 0 -88 137 -74 149 34 32 112 84 150 101 73 32 122
42 203 41 88 -1 146 -17 247 -68 l74 -36 77 36 c105 48 143 57 244 57 88 0
168 -18 259 -59 34 -15 58 -18 128 -13 96 5 102 8 211 100 103 87 129 100 213
113 99 16 189 1 274 -45 61 -32 62 -32 85 -15 13 10 33 19 45 19 35 0 86 21
148 61 33 21 81 46 109 55 54 18 51 26 -16 45 -60 16 -120 2 -208 -52 -111
-68 -132 -65 -85 10 14 21 32 55 40 75 l15 36 330 0 c182 0 331 -3 331 -7 0
-21 -50 -225 -58 -240 -10 -17 -42 -27 -42 -13 0 4 -23 -1 -52 -12 l-51 -19
-54 22 c-76 31 -130 39 -187 28 -43 -8 -113 -51 -115 -71 -1 -5 27 -8 62 -8
120 0 262 -56 372 -146 31 -25 58 -44 60 -42 2 2 18 37 35 77 67 157 124 387
118 473 l-3 43 -352 3 c-273 2 -353 5 -353 15 0 6 9 41 20 77 25 82 52 264 48
321 -3 39 -6 44 -28 46 -14 1 -74 -16 -135 -38z m50 -202 c-22 -109 -79 -276
-123 -358 l-35 -66 -41 12 c-78 24 -139 27 -212 11 -108 -22 -190 -68 -300
-167 -75 -67 -129 -72 -242 -25 -174 74 -384 70 -533 -11 l-46 -25 -60 30
c-32 17 -85 38 -117 47 -63 18 -78 39 -92 123 l-6 39 108 16 c60 9 195 28 299
42 208 28 227 36 206 81 -14 31 18 33 -364 -16 -136 -18 -254 -29 -262 -26 -8
3 -15 14 -15 25 0 24 7 26 135 41 168 20 625 91 846 131 279 50 614 136 799
203 l65 24 3 -25 c2 -13 -4 -61 -13 -106z m-672 106 c65 -6 67 -7 67 -34 0
-18 -6 -30 -17 -33 -18 -5 -284 -60 -335 -68 l-28 -5 0 68 0 68 53 4 c98 7
192 7 260 0z m-466 -159 c-4 -4 -101 -23 -104 -21 -5 6 -8 108 -4 115 3 5 29
13 56 18 l50 9 3 -59 c2 -32 1 -60 -1 -62z m-197 27 l0 -58 -37 -7 c-81 -13
-83 -12 -83 49 l0 54 38 6 c20 4 44 8 52 10 8 1 18 3 23 4 4 0 7 -25 7 -58z
m-580 -293 c0 -7 3 -30 6 -51 l7 -37 -39 16 c-52 22 -141 23 -179 1 -27 -14
-28 -16 -8 -17 41 0 129 -40 173 -77 l43 -37 -74 -19 c-80 -21 -88 -22 -164
-12 -47 7 -79 -1 -137 -32 -8 -5 -45 118 -53 177 -3 25 -8 57 -11 73 l-6 27
221 0 c170 0 221 -3 221 -12z"/>
<path d="M2605 2548 c-49 -28 -60 -87 -24 -132 42 -54 139 -18 139 53 0 43 -9
60 -41 76 -33 18 -47 18 -74 3z"/>
<path d="M2315 2475 c-46 -45 -19 -125 47 -141 23 -5 34 0 64 30 30 30 35 41
30 64 -16 66 -96 93 -141 47z"/>
<path d="M2891 2119 c-85 -16 -173 -99 -187 -176 -6 -31 -3 -39 25 -65 31 -29
81 -115 81 -140 0 -21 -198 -18 -214 3 -23 32 -76 50 -76 26 0 -22 -34 -47
-63 -47 -17 0 -48 19 -92 56 -49 42 -69 54 -78 45 -34 -34 -106 9 -76 45 17
20 2 30 -71 45 -89 19 -181 7 -263 -34 -40 -19 -106 -47 -149 -62 -83 -29
-123 -52 -285 -165 -112 -78 -171 -108 -213 -109 -23 -1 -23 -2 15 -41 21 -22
49 -40 60 -40 12 0 77 37 144 83 268 181 305 198 475 217 108 12 169 0 218
-41 73 -60 87 -175 21 -167 -22 2 -29 10 -34 36 -14 71 -77 95 -124 47 -44
-43 -28 -119 32 -156 77 -48 188 -31 340 52 40 21 113 53 162 69 113 38 251
42 353 10 34 -11 66 -20 69 -20 4 0 9 37 11 83 6 102 41 177 119 255 l54 53
-40 -7 c-55 -9 -83 -25 -130 -73 -41 -43 -74 -52 -95 -26 -36 43 14 118 118
177 59 34 58 50 -7 68 -40 11 -39 11 -100 -1z"/>
<path d="M3203 1801 c-51 -37 -72 -67 -84 -121 -24 -108 68 -220 181 -220 48
0 112 31 141 69 l24 31 38 -25 c20 -14 37 -29 37 -33 0 -31 -247 -220 -368
-281 -71 -36 -92 -42 -85 -26 3 9 -1 15 -11 15 -8 0 -13 6 -11 13 4 9 -7 11
-40 9 -34 -3 -59 3 -99 22 -63 31 -96 35 -75 9 13 -15 12 -15 -11 -3 -21 10
-23 10 -12 -1 23 -25 12 -89 -17 -89 -15 1 -63 30 -48 30 4 0 1 13 -7 29 -35
67 -160 98 -271 67 -27 -8 -90 -26 -140 -40 -191 -55 -413 -24 -524 73 -13 12
-37 21 -52 21 -21 0 -32 7 -43 29 -34 65 -205 68 -302 5 l-27 -18 44 -39 c167
-148 452 -281 729 -339 154 -32 438 -32 598 0 206 41 420 126 563 223 139 93
283 228 362 338 l35 49 -26 25 c-45 41 -93 61 -155 62 -57 1 -57 1 -79 44 -29
60 -82 92 -160 98 -58 5 -66 3 -105 -26z m137 -151 c25 -25 25 -45 -1 -71 -30
-30 -89 -5 -89 38 0 18 37 53 55 53 8 0 24 -9 35 -20z"/>
</g>
</svg>
